<?xml version="1.0" standalone="no"?>
<!DOCTYPE svg PUBLIC "-//W3C//DTD SVG 20010904//EN"
 "http://www.w3.org/TR/2001/REC-SVG-20010904/DTD/svg10.dtd">
<svg version="1.0" xmlns="http://www.w3.org/2000/svg"
 width="612.000000pt" height="612.000000pt" viewBox="0 0 612.000000 612.000000"
 preserveAspectRatio="xMidYMid meet">

<g transform="translate(0.000000,612.000000) scale(0.100000,-0.100000)"
fill="#000000" stroke="none">
<path d="M4743 5175 c-31 -31 -35 -40 -30 -74 11 -88 66 -116 127 -65 90 76
77 174 -23 174 -31 0 -46 -7 -74 -35z"/>
<path d="M4525 5035 c-57 -30 -68 -62 -33 -95 28 -25 89 -27 111 -2 26 29 32
70 12 92 -22 24 -50 25 -90 5z"/>
<path d="M4835 4967 c-194 -103 -334 -207 -483 -361 -105 -108 -201 -249 -234
-343 -22 -61 -31 -71 -178 -206 -85 -78 -284 -269 -441 -425 l-287 -283 -7 53
c-20 163 -51 265 -103 332 -45 60 -92 86 -152 86 -142 -1 -269 -155 -336 -406
-39 -146 -69 -195 -146 -235 -45 -23 -178 -43 -226 -34 -119 22 -346 -2 -485
-52 -331 -119 -549 -336 -660 -658 -75 -218 -88 -498 -33 -708 107 -414 455
-720 927 -818 145 -29 333 -23 464 15 186 55 414 189 514 302 151 171 245 380
296 664 47 257 62 301 135 383 79 89 175 124 309 113 185 -15 325 43 399 166
47 79 52 137 15 208 -47 91 -60 95 -303 95 -184 1 -211 3 -261 22 -112 42
-144 81 -137 167 6 70 32 120 134 256 150 200 328 393 497 537 48 42 87 83 87
92 0 18 -18 41 -32 41 -11 0 -144 -115 -223 -195 -128 -128 -313 -345 -448
-528 -68 -91 -101 -210 -77 -281 15 -48 63 -102 110 -126 89 -46 262 -68 410
-52 102 11 142 2 171 -39 46 -65 32 -139 -40 -217 -57 -62 -106 -75 -291 -82
-159 -5 -168 -7 -232 -37 -146 -69 -249 -230 -273 -428 -32 -271 -160 -570
-308 -723 -145 -149 -371 -267 -578 -302 -181 -31 -448 19 -652 121 -405 203
-618 585 -577 1032 31 330 162 586 393 764 111 86 300 167 462 198 22 5 135 9
250 9 l210 1 67 33 c110 54 147 110 202 310 44 157 120 278 200 316 138 65
234 -73 261 -377 l7 -78 -138 -142 c-146 -149 -390 -408 -440 -466 -16 -19
-72 -82 -125 -140 -53 -58 -109 -121 -125 -139 l-29 -33 -66 11 c-84 15 -136
2 -189 -46 -56 -51 -74 -105 -68 -206 4 -61 12 -99 32 -142 14 -32 26 -73 26
-90 0 -116 76 -196 185 -196 145 0 374 185 593 478 7 9 31 45 53 80 22 34 44
60 49 57 6 -3 7 1 4 9 -3 8 19 59 49 113 138 251 223 509 242 739 l7 82 282
280 c283 281 370 365 525 505 l85 76 16 -27 c44 -70 105 -87 233 -65 194 33
515 172 604 262 90 90 175 318 159 426 -8 52 -44 92 -91 101 -101 19 -344
-125 -680 -403 -69 -57 -127 -103 -130 -103 -11 0 29 67 81 137 133 178 362
362 602 482 70 35 83 45 80 64 -5 36 -37 30 -143 -26z m203 -229 c17 -17 15
-115 -4 -177 -26 -88 -76 -184 -119 -226 -102 -102 -492 -255 -649 -255 -43 0
-61 5 -76 20 -45 45 -26 71 155 222 218 181 416 322 550 392 72 37 122 45 143
24z m-1918 -1717 c-29 -142 -81 -294 -151 -437 -68 -141 -97 -182 -111 -162
-7 9 -8 8 -4 -5 7 -20 -106 -202 -117 -190 -4 3 -7 -3 -7 -14 0 -26 -36 -61
-43 -41 -2 7 -3 4 -1 -6 2 -11 -7 -32 -19 -47 -12 -15 -35 -46 -52 -69 -49
-69 -200 -204 -267 -241 -52 -27 -74 -33 -125 -34 -51 0 -65 4 -87 24 -42 40
-33 53 21 29 92 -41 212 -4 325 100 34 32 67 71 75 89 44 106 -25 242 -157
308 -19 10 -37 19 -39 21 -4 4 152 175 313 344 142 147 266 280 371 395 88 97
90 99 93 69 2 -17 -6 -77 -18 -133z"/>
<path d="M4910 4476 c0 -2 7 -9 15 -16 13 -11 14 -10 9 4 -5 14 -24 23 -24 12z"/>
<path d="M4819 4339 l-24 -20 28 17 c15 9 27 18 27 20 0 8 -8 4 -31 -17z"/>
<path d="M4616 4307 c-16 -12 -16 -13 2 -13 10 0 19 6 19 13 0 7 -1 13 -2 13
-1 0 -9 -6 -19 -13z"/>
<path d="M4680 4249 c0 -5 5 -7 10 -4 6 3 10 8 10 11 0 2 -4 4 -10 4 -5 0 -10
-5 -10 -11z"/>
<path d="M4489 4223 c-13 -16 -12 -17 4 -4 9 7 17 15 17 17 0 8 -8 3 -21 -13z"/>
<path d="M4628 4223 c7 -3 16 -2 19 1 4 3 -2 6 -13 5 -11 0 -14 -3 -6 -6z"/>
<path d="M2708 2543 c7 -3 16 -2 19 1 4 3 -2 6 -13 5 -11 0 -14 -3 -6 -6z"/>
<path d="M2730 2260 c6 -11 13 -20 16 -20 2 0 0 9 -6 20 -6 11 -13 20 -16 20
-2 0 0 -9 6 -20z"/>
<path d="M4310 4852 c-19 -9 -36 -25 -38 -35 -9 -45 68 -76 102 -41 23 22 20
71 -3 84 -24 13 -20 13 -61 -8z"/>
<path d="M4145 4596 c-20 -15 -17 -44 7 -59 12 -8 21 -7 32 2 36 30 -1 85 -39
57z"/>
<path d="M2891 2214 c0 -11 3 -14 6 -6 3 7 2 16 -1 19 -3 4 -6 -2 -5 -13z"/>
<path d="M1700 1936 c0 -23 13 -53 39 -92 69 -103 267 -295 362 -352 38 -23
79 -29 79 -12 0 78 -388 490 -460 490 -16 0 -20 -7 -20 -34z"/>
<path d="M2519 1734 c17 -13 25 -14 34 -5 9 9 8 11 -4 6 -10 -4 -20 -2 -24 4
-3 6 -11 11 -18 11 -6 0 -1 -7 12 -16z"/>
</g>
</svg>
